<?xml version="1.0" standalone="no"?>
<!DOCTYPE svg PUBLIC "-//W3C//DTD SVG 20010904//EN"
 "http://www.w3.org/TR/2001/REC-SVG-20010904/DTD/svg10.dtd">
<svg version="1.0" xmlns="http://www.w3.org/2000/svg"
 width="900.000000pt" height="900.000000pt" viewBox="0 0 900.000000 900.000000"
 preserveAspectRatio="xMidYMid meet">
<metadata>
Created by potrace 1.10, written by Peter Selinger 2001-2011
</metadata>
<g transform="translate(0.000000,900.000000) scale(0.100000,-0.100000)"
fill="#dcdcdc" stroke="none">
<path d="M6406 6921 c-6 -9 -18 -158 -41 -526 -8 -132 -20 -310 -26 -395 -6
-85 -14 -227 -19 -315 -11 -207 -26 -448 -46 -706 -9 -113 -14 -214 -10 -225
6 -19 28 -27 181 -70 33 -9 76 -22 95 -29 82 -29 147 -47 180 -48 34 -2 35 -1
34 33 -17 483 -26 723 -34 845 -5 83 -10 179 -10 214 0 62 1 63 24 57 13 -3
57 -25 98 -49 80 -47 100 -76 133 -192 10 -33 23 -76 30 -95 7 -19 28 -82 46
-140 18 -58 51 -163 74 -235 23 -71 57 -177 75 -235 17 -58 38 -121 45 -140 7
-19 21 -62 30 -95 29 -100 47 -136 76 -150 30 -16 99 -42 144 -55 17 -4 55
-18 85 -30 30 -12 88 -32 129 -46 40 -13 82 -29 93 -35 23 -12 57 -83 58 -118
0 -22 -40 -110 -94 -206 -12 -22 -37 -67 -56 -100 -45 -80 -118 -206 -130
-225 -6 -8 -14 -25 -20 -37 -12 -29 -64 -61 -110 -69 -19 -3 -55 -12 -80 -19
-25 -8 -74 -21 -110 -30 -36 -9 -90 -23 -120 -32 -66 -18 -133 -36 -220 -59
-166 -43 -277 -73 -331 -90 -26 -8 -54 -14 -64 -14 -10 0 -38 -7 -64 -14 -25
-8 -72 -22 -103 -30 -32 -9 -82 -22 -110 -30 -29 -8 -82 -22 -118 -31 -36 -9
-87 -23 -115 -30 -27 -8 -79 -21 -115 -31 -36 -9 -87 -22 -115 -30 -27 -7 -79
-20 -115 -30 -36 -9 -85 -22 -110 -29 -25 -7 -74 -20 -110 -29 -36 -10 -87
-23 -115 -31 -27 -7 -79 -21 -115 -30 -36 -10 -85 -23 -110 -30 -25 -7 -73
-20 -107 -29 -35 -9 -91 -23 -125 -32 -35 -9 -83 -22 -108 -29 -42 -12 -94
-26 -235 -62 -95 -25 -166 -44 -214 -59 -25 -8 -54 -14 -66 -14 -34 0 -60 -25
-121 -117 -32 -49 -75 -111 -96 -140 -21 -29 -38 -59 -38 -68 0 -18 22 -16
135 10 33 7 96 21 140 30 44 9 105 23 135 30 30 8 93 21 140 30 47 9 113 23
148 31 112 25 186 42 267 59 44 9 107 23 140 30 33 8 96 21 140 30 44 10 107
23 140 30 33 8 96 21 140 30 44 10 108 23 142 31 35 8 91 20 125 28 35 8 97
21 138 30 158 33 227 48 285 61 33 8 96 21 140 30 44 9 107 23 140 30 33 7 94
21 135 30 41 9 102 22 135 30 33 7 98 21 145 30 47 9 110 22 140 30 30 7 91
21 135 30 95 20 198 42 280 60 33 7 96 21 140 30 44 9 105 23 135 30 30 8 93
21 140 30 126 25 169 36 178 49 5 6 30 79 56 161 55 170 48 150 93 275 18 52
45 127 58 165 13 39 34 95 45 125 12 30 25 66 30 80 5 14 30 77 56 140 25 63
52 129 59 145 12 32 21 52 67 153 15 34 28 64 28 66 0 7 81 178 176 373 46 95
84 177 84 182 0 6 -12 13 -27 17 -16 3 -48 12 -73 19 -25 7 -74 20 -110 30
-36 10 -86 24 -112 32 -26 8 -61 13 -78 11 -28 -3 -36 -12 -74 -83 -23 -44
-68 -129 -101 -190 -32 -60 -77 -145 -99 -187 -31 -60 -46 -78 -62 -78 -20 0
-120 39 -267 104 -17 8 -58 24 -90 37 -67 27 -71 32 -146 209 -50 117 -84 195
-116 265 -42 93 -67 149 -100 228 l-37 87 28 43 c16 23 31 47 34 52 3 6 18 29
33 52 28 41 28 42 13 95 -8 29 -22 81 -30 116 -9 34 -23 88 -31 120 -46 181
-68 271 -75 302 -4 19 -12 53 -18 75 -6 22 -13 51 -16 65 -5 27 17 14 -599
329 -120 61 -222 111 -227 111 -5 0 -11 -4 -14 -9z m438 -531 c114 -56 118
-62 132 -176 3 -27 10 -70 15 -96 10 -42 8 -49 -17 -87 -14 -23 -33 -41 -42
-41 -8 0 -51 23 -96 50 -140 87 -127 63 -133 243 -7 188 -15 182 141 107z"/>
<path d="M195 6549 c-44 -22 -86 -45 -93 -53 -12 -11 4 -50 101 -247 357 -726
507 -1037 507 -1047 0 -4 20 -55 45 -114 50 -119 121 -292 167 -408 17 -41 37
-90 44 -107 8 -18 20 -48 28 -65 7 -18 28 -69 46 -113 17 -44 38 -93 45 -110
14 -33 61 -149 107 -265 16 -41 36 -88 43 -105 42 -96 86 -214 105 -280 4 -16
18 -55 30 -85 12 -30 25 -69 30 -86 4 -18 11 -37 15 -44 4 -7 11 -26 16 -44 4
-17 24 -76 44 -131 19 -55 53 -152 75 -215 57 -166 135 -388 155 -440 9 -25
20 -58 25 -75 9 -32 77 -228 135 -390 20 -55 40 -113 45 -130 17 -60 38 -109
47 -112 14 -5 23 19 117 299 47 139 91 269 97 288 12 36 28 81 48 140 7 19 17
49 21 65 5 17 23 70 40 119 33 96 33 98 5 266 -13 81 -24 151 -60 375 -25 162
-72 454 -86 534 -17 99 -16 101 39 101 26 0 124 -7 217 -15 94 -9 247 -22 340
-31 94 -8 224 -19 290 -25 66 -6 174 -14 240 -19 156 -11 352 -27 545 -45 185
-18 387 -35 530 -45 199 -14 395 -30 490 -40 52 -6 156 -15 230 -20 74 -5 165
-12 203 -16 62 -6 67 -5 67 13 0 11 -15 49 -34 84 -18 35 -64 122 -100 194
-37 71 -70 133 -75 138 -9 9 -98 24 -216 37 -115 12 -245 28 -355 45 -52 8
-124 17 -160 20 -36 3 -90 10 -120 15 -30 5 -116 16 -190 25 -74 8 -184 22
-245 30 -123 16 -280 37 -460 59 -259 33 -374 47 -480 61 -175 23 -330 43
-470 60 -215 26 -364 48 -377 56 -7 4 -15 34 -19 66 -8 67 -32 222 -48 308
-23 131 -29 170 -24 177 2 5 21 8 41 8 34 0 71 -6 253 -46 37 -8 75 -14 85
-14 10 0 45 -6 78 -14 34 -7 106 -21 161 -31 55 -9 118 -21 140 -26 40 -9 169
-34 255 -48 43 -8 86 -16 245 -46 209 -40 317 -60 475 -90 158 -30 266 -50
475 -90 163 -31 202 -38 245 -45 25 -5 72 -13 105 -20 107 -21 198 -39 290
-55 50 -9 109 -20 133 -25 85 -20 92 -14 73 59 -5 20 -17 72 -26 116 -9 44
-22 107 -30 140 -7 33 -16 72 -19 86 -6 28 -25 35 -261 104 -33 10 -78 24
-100 30 -22 7 -67 21 -100 30 -33 10 -78 24 -100 30 -22 7 -67 21 -100 30 -33
10 -78 24 -100 30 -22 7 -67 21 -100 30 -33 10 -78 24 -100 30 -22 7 -67 21
-100 30 -33 10 -78 24 -100 31 -22 7 -87 26 -145 43 -58 17 -125 38 -150 45
-25 8 -72 22 -105 31 -33 10 -78 24 -100 30 -22 7 -67 21 -100 30 -33 10 -78
24 -100 30 -22 7 -67 21 -100 30 -33 10 -78 24 -100 30 -22 7 -65 20 -95 29
-77 22 -328 106 -500 166 -80 28 -158 55 -175 60 -16 5 -115 38 -220 75 -104
36 -203 70 -220 75 -16 5 -75 25 -130 45 -118 42 -179 63 -220 75 -16 5 -75
25 -130 45 -55 20 -114 40 -131 44 -18 5 -37 12 -44 16 -7 4 -26 11 -44 16
-17 4 -76 24 -131 44 -55 20 -113 40 -130 45 -16 5 -95 32 -175 60 -80 28
-158 55 -175 60 -16 4 -41 12 -55 18 -21 8 -39 3 -105 -29z"/>
<path d="M5331 6573 c-5 -10 -14 -45 -21 -78 -6 -33 -18 -87 -25 -120 -7 -33
-21 -96 -30 -140 -10 -44 -23 -107 -30 -140 -8 -33 -21 -98 -30 -145 -9 -47
-23 -112 -30 -145 -14 -59 -31 -138 -61 -285 -23 -116 -41 -199 -58 -272 -9
-37 -16 -80 -16 -96 0 -31 7 -34 170 -79 30 -9 76 -23 103 -31 66 -22 75 -11
88 109 5 52 12 102 15 112 3 9 9 52 14 95 5 42 14 109 19 147 46 303 47 305
83 305 20 0 175 -98 197 -124 7 -8 17 -48 22 -88 5 -40 15 -100 20 -133 11
-60 32 -200 49 -330 5 -38 14 -94 20 -124 5 -29 10 -69 10 -87 0 -24 7 -38 23
-48 36 -24 327 -118 344 -112 10 4 13 14 9 30 -3 13 -10 52 -15 87 -6 35 -15
91 -21 124 -30 154 -40 207 -55 300 -9 55 -23 128 -31 162 -29 129 -25 137 94
199 62 32 67 49 67 234 0 192 -6 213 -73 261 -25 18 -53 40 -62 49 -24 24
-138 110 -145 110 -4 0 -26 13 -49 28 -22 15 -48 31 -56 35 -8 4 -28 16 -45
27 -34 22 -88 48 -125 60 -14 5 -50 18 -80 30 -55 22 -68 26 -167 54 -28 8
-61 19 -72 25 -28 15 -39 14 -50 -6z m359 -374 c94 -25 113 -35 211 -106 l80
-57 -3 -64 -3 -64 -47 -25 c-53 -28 -45 -30 -165 44 -37 23 -97 71 -133 108
l-65 66 2 55 c3 65 9 78 31 69 9 -3 50 -15 92 -26z"/>
<path d="M4280 6373 c-74 -4 -96 -10 -117 -31 -10 -10 -62 -58 -117 -107 -54
-49 -118 -115 -142 -146 -24 -31 -52 -67 -63 -80 -12 -13 -63 -78 -114 -144
-51 -66 -116 -150 -145 -186 -29 -37 -52 -73 -52 -82 0 -9 25 -22 73 -37 39
-12 90 -28 112 -35 22 -7 87 -28 145 -45 58 -18 123 -38 145 -45 22 -7 67 -21
100 -30 33 -10 76 -23 95 -30 19 -7 62 -20 95 -30 127 -38 161 -48 195 -60 37
-13 95 -31 195 -60 33 -10 76 -23 95 -30 19 -7 68 -23 108 -35 99 -30 105 -24
106 101 l1 91 -105 34 c-130 42 -279 89 -345 109 -45 14 -278 88 -365 116 -53
17 -60 25 -49 62 5 18 13 41 18 52 5 11 12 28 15 38 7 23 38 21 121 -9 39 -14
84 -29 100 -34 17 -4 57 -18 90 -30 33 -11 74 -25 90 -30 17 -4 46 -14 65 -21
59 -20 104 -36 140 -48 19 -6 81 -27 138 -46 149 -51 145 -52 157 55 6 51 5
57 -17 68 -26 13 -97 39 -143 52 -16 5 -68 23 -115 40 -47 17 -123 44 -170 60
-47 16 -143 49 -215 74 -71 25 -131 51 -133 58 -4 22 55 94 92 112 75 35 126
26 321 -59 17 -7 82 -34 145 -60 63 -26 146 -60 184 -76 88 -37 106 -37 106
-1 0 15 7 49 15 76 8 28 13 58 9 68 -5 16 -72 53 -219 118 -86 39 -212 97
-380 175 -118 55 -169 75 -189 73 -11 -1 -46 -3 -76 -5z"/>
</g>
</svg>
